<svg width="119" height="28" viewBox="0 0 119 28" fill="none" xmlns="http://www.w3.org/2000/svg">
<path d="M0.345383 6.54083C0.235916 6.42711 0.149056 6.29194 0.0897848 6.14308C0.0305134 5.99422 0 5.83461 0 5.67341C0 5.51221 0.0305134 5.35259 0.0897848 5.20373C0.149056 5.05488 0.235916 4.91971 0.345383 4.80599C0.458248 4.69125 3.09665 2.00025 8.21222 2.00025C10.9122 2.00025 12.9379 3.40924 14.7261 4.653C16.3825 5.8065 17.9479 6.89575 19.9384 6.89575C21.5456 6.92079 23.1372 6.56346 24.5923 5.85087C25.1566 5.57913 25.6812 5.22528 26.1504 4.79987C26.2597 4.68666 26.3894 4.59703 26.5319 4.53611C26.6744 4.47519 26.827 4.44416 26.9811 4.4448C27.1351 4.44544 27.2874 4.47773 27.4295 4.53984C27.5715 4.60194 27.7005 4.69264 27.8089 4.80675C27.9174 4.92087 28.0033 5.05616 28.0617 5.20491C28.12 5.35365 28.1498 5.51294 28.1491 5.67368C28.1485 5.83442 28.1176 5.99347 28.0581 6.14173C27.9986 6.28999 27.9117 6.42456 27.8024 6.53777C27.6924 6.65251 25.054 9.34351 19.9384 9.34351C17.2385 9.34351 15.2128 7.93452 13.4245 6.69075C11.7682 5.53725 10.2027 4.448 8.21222 4.448C6.60504 4.42296 5.01352 4.7803 3.55837 5.49289C2.99403 5.76462 2.46944 6.11848 2.00025 6.54389C1.7801 6.7719 1.48236 6.89959 1.17221 6.89902C0.862064 6.89845 0.564762 6.76965 0.345383 6.54083ZM26.1504 13.367C25.6812 13.7924 25.1566 14.1463 24.5923 14.418C23.1372 15.1306 21.5456 15.4879 19.9384 15.4629C17.9479 15.4629 16.3825 14.3736 14.7261 13.2201C12.9379 11.9764 10.9122 10.5674 8.21222 10.5674C3.09665 10.5674 0.458248 13.2584 0.348314 13.3731C0.127505 13.6018 0.00276198 13.9126 0.00152499 14.2372C0.000288003 14.5618 0.122665 14.8737 0.341724 15.1041C0.560784 15.3346 0.858586 15.4648 1.16962 15.4661C1.48066 15.4674 1.77944 15.3397 2.00025 15.111C2.46944 14.6856 2.99403 14.3318 3.55837 14.06C5.01352 13.3474 6.60504 12.9901 8.21222 13.0151C10.2027 13.0151 11.7682 14.1044 13.4245 15.2579C15.2128 16.5017 17.2355 17.9106 19.9384 17.9106C25.054 17.9106 27.6924 15.2197 27.8024 15.1049C27.9117 14.9917 27.9986 14.8571 28.0581 14.7089C28.1176 14.5606 28.1485 14.4016 28.1491 14.2408C28.1498 14.0801 28.12 13.9208 28.0617 13.772C28.0033 13.6233 27.9174 13.488 27.8089 13.3739C27.7005 13.2598 27.5715 13.1691 27.4295 13.107C27.2874 13.0449 27.1351 13.0126 26.9811 13.0119C26.827 13.0113 26.6744 13.0423 26.5319 13.1033C26.3894 13.1642 26.2597 13.2538 26.1504 13.367ZM26.1504 21.9341C25.6812 22.3596 25.1566 22.7134 24.5923 22.9851C23.1372 23.6977 21.5456 24.0551 19.9384 24.03C17.9479 24.03 16.3825 22.9408 14.7261 21.7873C12.9379 20.5435 10.9122 19.1345 8.21222 19.1345C3.09665 19.1345 0.458248 21.8255 0.348314 21.9403C0.127505 22.1689 0.00276198 22.4797 0.00152499 22.8043C0.000288003 23.129 0.122665 23.4408 0.341724 23.6713C0.560784 23.9017 0.858586 24.0319 1.16962 24.0332C1.48066 24.0345 1.77944 23.9068 2.00025 23.6782C2.46944 23.2527 2.99403 22.8989 3.55837 22.6272C5.01352 21.9146 6.60504 21.5572 8.21222 21.5823C10.2027 21.5823 11.7682 22.6715 13.4245 23.825C15.2128 25.0688 17.2355 26.4778 19.9384 26.4778C25.054 26.4778 27.6924 23.7868 27.8024 23.672C28.0232 23.4434 28.1479 23.1326 28.1491 22.808C28.1504 22.4833 28.028 22.1715 27.8089 21.941C27.5899 21.7106 27.2921 21.5804 26.9811 21.5791C26.67 21.5778 26.3712 21.7055 26.1504 21.9341Z" fill="#D83A3A"/>
<path d="M45.385 3.22388L47.8929 7.56757H46.6504V13.0908C48.8648 12.2852 50.4781 10.2277 50.6341 7.77419H49.772L51.9216 4.05103L54.0711 7.77419H53.1199C52.9472 11.6088 50.2498 14.7861 46.6504 15.6833V26.4781H44.1683V15.9275C39.7623 15.7215 36.2277 12.1822 36.0292 7.77419H35.0449L37.1945 4.05103L39.3441 7.77419H38.515C38.7081 10.8109 41.1335 13.241 44.1683 13.4415V7.56757H42.8772L45.385 3.22388Z" fill="#D83A3A"/>
<path d="M81.0073 14.0002L84.2656 8.31275C84.3428 8.17916 84.3832 8.02754 84.3829 7.87328C84.3825 7.71901 84.3414 7.56758 84.2637 7.43433C84.1859 7.30108 84.0744 7.19074 83.9403 7.11451C83.8061 7.03828 83.6543 6.99886 83.5 7.00025H77.0086L73.7656 1.31275C73.6892 1.17861 73.5786 1.06709 73.445 0.989522C73.3115 0.911953 73.1599 0.871094 73.0055 0.871094C72.8511 0.871094 72.6994 0.911953 72.5659 0.989522C72.4324 1.06709 72.3218 1.17861 72.2453 1.31275L68.9892 7.00025H62.5C62.3462 6.99983 62.195 7.03996 62.0617 7.11658C61.9283 7.19321 61.8175 7.30363 61.7404 7.43672C61.6634 7.5698 61.6227 7.72086 61.6226 7.87465C61.6225 8.02845 61.6629 8.17956 61.7398 8.31275L64.9905 14.0002L61.7398 19.6877C61.6627 19.8213 61.6223 19.973 61.6226 20.1272C61.6229 20.2815 61.6641 20.4329 61.7418 20.5662C61.8195 20.6994 61.9311 20.8098 62.0652 20.886C62.1993 20.9622 62.3512 21.0016 62.5055 21.0002H68.9892L72.2398 26.6878C72.3163 26.8219 72.4269 26.9334 72.5604 27.011C72.6939 27.0885 72.8456 27.1294 73 27.1294C73.1544 27.1294 73.3061 27.0885 73.4396 27.011C73.5731 26.9334 73.6837 26.8219 73.7602 26.6878L77.0086 21.0002H83.5C83.6543 21.0016 83.8061 20.9622 83.9403 20.886C84.0744 20.8098 84.1859 20.6994 84.2637 20.5662C84.3414 20.4329 84.3825 20.2815 84.3829 20.1272C84.3832 19.973 84.3428 19.8213 84.2656 19.6877L81.0073 14.0002ZM81.9917 8.75025L80 12.2371L78.0083 8.75025H81.9917ZM78.9927 14.0002L75.9936 19.2502H70.0053L67.0062 14.0002L70.0053 8.75025H75.9936L78.9927 14.0002ZM73 3.51337L74.9928 7.00025H71.0061L73 3.51337ZM64.0072 8.75025H67.9895L66 12.2371L64.0072 8.75025ZM64.0072 19.2415L66 15.7634L67.9895 19.2502L64.0072 19.2415ZM73 24.4871L71.0061 21.0002H74.9928L73 24.4871ZM78.0083 19.2502L80 15.7634L81.9917 19.2502H78.0083Z" fill="#D83A3A"/>
<path d="M117.102 12.3596L110.164 9.844L107.641 2.89869C107.516 2.56378 107.292 2.27493 106.999 2.07096C106.706 1.86699 106.357 1.75766 106 1.75766C105.643 1.75766 105.294 1.86699 105.001 2.07096C104.708 2.27493 104.484 2.56378 104.359 2.89869L101.844 9.83634L94.8984 12.3596C94.5635 12.4839 94.2747 12.7078 94.0707 13.0011C93.8667 13.2943 93.7574 13.643 93.7574 14.0002C93.7574 14.3575 93.8667 14.7062 94.0707 14.9994C94.2747 15.2927 94.5635 15.5166 94.8984 15.6409L101.836 18.1565L104.359 25.1018C104.484 25.4367 104.708 25.7256 105.001 25.9295C105.294 26.1335 105.643 26.2428 106 26.2428C106.357 26.2428 106.706 26.1335 106.999 25.9295C107.292 25.7256 107.516 25.4367 107.641 25.1018L110.164 18.1631L117.102 15.6409C117.436 15.5166 117.725 15.2927 117.929 14.9994C118.133 14.7062 118.243 14.3575 118.243 14.0002C118.243 13.643 118.133 13.2943 117.929 13.0011C117.725 12.7078 117.436 12.4839 117.102 12.3596ZM109.562 16.5159C109.323 16.6033 109.105 16.742 108.925 16.9222C108.745 17.1025 108.606 17.3199 108.519 17.5593L106 24.4893L103.484 17.5626C103.397 17.3222 103.258 17.104 103.077 16.9231C102.896 16.7423 102.678 16.6033 102.438 16.5159L95.5109 14.0002L102.438 11.4846C102.678 11.3972 102.896 11.2582 103.077 11.0774C103.258 10.8965 103.397 10.6783 103.484 10.4379L106 3.51119L108.516 10.4379C108.603 10.6773 108.742 10.8948 108.922 11.075C109.102 11.2552 109.32 11.3939 109.559 11.4813L116.486 13.997L109.562 16.5159Z" fill="#D83A3A"/>
</svg>
